<svg width="334" height="132" viewBox="0 0 334 132" fill="none" xmlns="http://www.w3.org/2000/svg">
<path d="M273.5 38.5L313.375 48.125L317.5 68.75L303.75 82.5L283.125 78.375L273.5 38.5ZM273.5 38.5L294.362 59.3615M301 85.25L320.25 66L328.5 74.25L309.25 93.5L301 85.25ZM303.75 63.25C303.75 66.2876 301.288 68.75 298.25 68.75C295.212 68.75 292.75 66.2876 292.75 63.25C292.75 60.2124 295.212 57.75 298.25 57.75C301.288 57.75 303.75 60.2124 303.75 63.25Z" stroke="#1E1E1E" stroke-width="3" stroke-linecap="round" stroke-linejoin="round"/>
<path d="M16.92 102.12C16.6 102.12 16.4 101.84 16.32 101.28C16.08 96.64 18.16 88.8 22.56 77.76C18.48 75.44 15.04 71.84 12.24 66.96C9.52 62.08 7.8 56.52 7.08 50.28C5 53.8 3.96 56.92 3.96 59.64C3.96 63.16 5.6 65.88 8.88 67.8C9.68 68.28 10.08 68.72 10.08 69.12C10.08 69.36 9.88 69.48 9.48 69.48C9 69.48 8.44 69.28 7.8 68.88C3.56 65.36 1.44 61.36 1.44 56.88C1.44 52.8 3.2 48.52 6.72 44.04C6.72 35.48 9.04 28.48 13.68 23.04C17.84 18.16 22.48 15.72 27.6 15.72C30.24 15.72 32.56 16.52 34.56 18.12C36.48 19.8 37.76 22.4 38.4 25.92C44.8 25.92 48 29.64 48 37.08C48 42.12 46.4 48.36 43.2 55.8L39.12 65.52C37.04 70.56 35.44 74.96 34.32 78.72C37.52 78.72 40.2 78.2 42.36 77.16C44.92 75.96 46.64 74.2 47.52 71.88C47.68 71.72 47.84 71.64 48 71.64C48.4 71.64 48.52 71.84 48.36 72.24C47.48 74.64 45.6 76.52 42.72 77.88C40.08 79.16 37.16 79.84 33.96 79.92C32.76 83.84 32.16 86.88 32.16 89.04C32.16 91.6 33 92.88 34.68 92.88C37.24 92.88 41.6 89.96 47.76 84.12C55.44 76.76 63.4 65.88 71.64 51.48C71.88 51.08 72.48 50.68 73.44 50.28C74.4 49.88 75.32 49.68 76.2 49.68C77 49.68 77.68 49.88 78.24 50.28C75.92 53.32 74 57.44 72.48 62.64C70.72 68.16 69.84 73.44 69.84 78.48C69.84 88.96 73.68 94.2 81.36 94.2C81.76 94.2 82.16 94.2 82.56 94.2C82.96 94.2 83.36 94.16 83.76 94.08C90.08 93.28 96.28 89.4 102.36 82.44C107.8 76.44 112.12 69.24 115.32 60.84C117.64 54.6 118.8 48.68 118.8 43.08C118.8 32.76 114.52 27.6 105.96 27.6C101.64 27.6 97.52 28.76 93.6 31.08H93.24C92.76 31.08 92.52 30.84 92.52 30.36C92.52 29.96 92.64 29.72 92.88 29.64C96.88 27.24 101.24 26.04 105.96 26.04C112.04 26.04 116.44 28.12 119.16 32.28C121.56 35.64 122.76 40.24 122.76 46.08C122.76 51.28 121.84 56.72 120 62.4C116.8 72.32 111.32 80.6 103.56 87.24C99.88 90.44 96.28 92.76 92.76 94.2C89.24 95.72 85.84 96.48 82.56 96.48C71.2 96.48 65.52 89.4 65.52 75.24C65.52 73.72 65.56 72.2 65.64 70.68C65.8 69.08 66.04 67.48 66.36 65.88C63.16 70.12 60.12 73.92 57.24 77.28C54.44 80.64 51.84 83.48 49.44 85.8C41.92 93.32 35.88 97.08 31.32 97.08C27.32 97.08 25.32 94.48 25.32 89.28C25.32 86.72 26 83.76 27.36 80.4L27.72 79.56C26.92 79.4 26.16 79.24 25.44 79.08C24.8 78.84 24.2 78.56 23.64 78.24C19.56 88.56 17.52 96.04 17.52 100.68C17.52 101.64 17.32 102.12 16.92 102.12ZM8.4 42.12C11.2 39 14.52 36.2 18.36 33.72C25.32 29.16 31.24 26.6 36.12 26.04C35.56 23.08 34.4 20.84 32.64 19.32C30.88 17.8 28.84 17.04 26.52 17.04C22.2 17.04 18.28 19.2 14.76 23.52C10.76 28.4 8.64 34.6 8.4 42.12ZM23.28 75.84C23.44 75.36 23.64 74.92 23.88 74.52C24.12 74.04 24.32 73.64 24.48 73.32C32.4 55.64 36.44 41.4 36.6 30.6C36.6 30.2 36.6 29.8 36.6 29.4C36.6 29 36.56 28.6 36.48 28.2C32.4 28.6 27.08 31.24 20.52 36.12C15.72 39.64 11.72 43.6 8.52 48C8.84 50.72 9.36 53.4 10.08 56.04C10.8 58.6 11.8 61.16 13.08 63.72C15.8 69.08 19.2 73.12 23.28 75.84ZM28.32 78.12C29.84 74.68 31.48 70.92 33.24 66.84C35 62.68 36.88 58.16 38.88 53.28C41.68 45.76 43.08 39.92 43.08 35.76C43.08 31.36 41.6 28.88 38.64 28.32V29.64C38.64 34.92 37.44 41.2 35.04 48.48C32.72 55.68 29.56 64.04 25.56 73.56L24.36 76.44C25.56 77.24 26.88 77.8 28.32 78.12ZM141.156 91.92C137.556 91.92 135.756 89.96 135.756 86.04C135.756 83.32 136.916 79.84 139.236 75.6C138.036 75.76 136.876 75.36 135.756 74.4C134.716 73.44 134.196 72.32 134.196 71.04C132.116 74.96 128.996 78.64 124.836 82.08C124.516 82.4 124.116 82.56 123.636 82.56C123.316 82.56 123.156 82.44 123.156 82.2C123.156 81.88 123.396 81.56 123.876 81.24C127.476 77.96 130.556 73.92 133.116 69.12L132.876 67.92C132.796 67.52 132.716 67.16 132.636 66.84C132.636 66.44 132.636 66.08 132.636 65.76C132.636 63.84 133.156 62.32 134.196 61.2C135.156 60.16 136.236 59.64 137.436 59.64C138.956 59.64 139.716 60.44 139.716 62.04C139.716 64.04 138.396 66.6 135.756 69.72V69.96C135.756 71.32 136.556 72 138.156 72C138.796 72 139.556 71.84 140.436 71.52C141.396 71.28 142.076 71.16 142.476 71.16C143.916 71.16 144.636 71.92 144.636 73.44C144.636 74 144.436 74.6 144.036 75.24C143.476 76.04 142.756 77.48 141.876 79.56C140.836 81.8 140.236 83.44 140.076 84.48C139.996 84.8 139.916 85.12 139.836 85.44C139.836 85.76 139.836 86.08 139.836 86.4C139.836 88.48 140.796 89.52 142.716 89.52C145.116 89.52 148.156 88.44 151.836 86.28C153.436 85.4 154.876 84.48 156.156 83.52C157.436 82.56 158.596 81.56 159.636 80.52C160.116 80.04 160.516 79.8 160.836 79.8C161.076 79.8 161.196 79.96 161.196 80.28C161.196 80.68 160.956 81.12 160.476 81.6C154.876 86.4 150.156 89.48 146.316 90.84C144.316 91.56 142.596 91.92 141.156 91.92ZM174.872 60C174.152 60 173.472 59.72 172.832 59.16C172.272 58.52 171.992 57.84 171.992 57.12C171.992 56.16 172.432 55.36 173.312 54.72C173.952 54.16 174.672 53.88 175.472 53.88C177.312 53.88 178.232 54.68 178.232 56.28C178.232 58.76 177.112 60 174.872 60ZM166.832 90C162.192 89.92 160.112 86.72 160.592 80.4C160.672 77.68 162.152 74.2 165.032 69.96C165.512 69.08 166.552 68.64 168.152 68.64C169.352 68.64 169.952 69 169.952 69.72L169.832 70.32L166.832 75.48C165.632 77.72 164.992 79.44 164.912 80.64C164.832 81.04 164.752 81.48 164.672 81.96C164.672 82.36 164.672 82.76 164.672 83.16C164.672 86.44 165.832 88.08 168.152 88.08C171.352 88.08 175.352 85.56 180.152 80.52C180.632 79.96 181.032 79.68 181.352 79.68C181.592 79.76 181.712 79.96 181.712 80.28C181.712 80.52 181.592 80.84 181.352 81.24C175.752 87.24 170.912 90.16 166.832 90ZM187.34 90C184.14 89.92 182.18 88.28 181.46 85.08C181.38 84.52 181.3 84 181.22 83.52C181.22 83.04 181.22 82.56 181.22 82.08C181.22 79.04 182.06 75.56 183.74 71.64C182.7 71.72 181.94 71.76 181.46 71.76C180.98 71.76 180.82 71.8 180.98 71.88C179.7 71.72 179.06 71.2 179.06 70.32V70.08C179.06 69.52 179.62 69.24 180.74 69.24L182.9 69.12H185.06C185.38 68.48 185.86 67.56 186.5 66.36C187.14 65.08 187.98 63.56 189.02 61.8C189.58 60.84 190.22 59.76 190.94 58.56C191.74 57.36 192.58 56.08 193.46 54.72C194.58 53.76 195.94 53.28 197.54 53.28C198.98 53.28 199.7 53.64 199.7 54.36C199.7 54.52 199.62 54.68 199.46 54.84C198.42 56.28 197.1 58.2 195.5 60.6C193.9 63 192.02 65.84 189.86 69.12H201.62C202.34 69.36 202.7 69.68 202.7 70.08C202.7 70.8 201.82 71.28 200.06 71.52C199.74 71.6 198.62 71.64 196.7 71.64C194.78 71.64 192.06 71.64 188.54 71.64C186.06 76.28 184.82 80.04 184.82 82.92C184.82 86.2 186.22 87.84 189.02 87.84C190.38 87.84 191.86 87.4 193.46 86.52C194.58 85.88 195.74 85.08 196.94 84.12C198.14 83.08 199.38 81.88 200.66 80.52C201.06 80.04 201.42 79.8 201.74 79.8C202.06 79.8 202.22 79.96 202.22 80.28C202.22 80.68 202.1 81 201.86 81.24C196.26 87.16 191.42 90.08 187.34 90ZM207.368 91.08C202.728 91.08 200.408 88.52 200.408 83.4C200.408 81.64 201.048 79.44 202.328 76.8C203.608 74.08 205.168 71.84 207.008 70.08C209.248 68 211.288 66.96 213.128 66.96C215.608 66.96 216.848 68.2 216.848 70.68C216.848 72.28 216.208 73.88 214.928 75.48C212.528 78.36 209.168 80.32 204.848 81.36C204.768 81.92 204.688 82.44 204.608 82.92C204.608 83.32 204.608 83.72 204.608 84.12C204.608 87.48 206.168 89.16 209.288 89.16C211.768 89.16 214.888 88.12 218.648 86.04C220.248 85.16 221.688 84.24 222.968 83.28C224.248 82.32 225.328 81.4 226.208 80.52C227.168 79.4 227.648 79.32 227.648 80.28C227.648 80.68 227.488 81.04 227.168 81.36C226.288 82.4 225.128 83.48 223.688 84.6C222.328 85.64 220.648 86.68 218.648 87.72C214.408 89.96 210.648 91.08 207.368 91.08ZM205.328 80.04C209.248 78.76 211.928 76.84 213.368 74.28C214.328 72.68 214.808 71.32 214.808 70.2C214.808 69.32 214.528 68.88 213.968 68.88C213.328 68.88 212.448 69.48 211.328 70.68C210.208 71.8 209.088 73.2 207.968 74.88C206.928 76.56 206.048 78.28 205.328 80.04ZM242.64 91.92C239.04 91.92 237.24 89.96 237.24 86.04C237.24 83.32 238.4 79.84 240.72 75.6C239.52 75.76 238.36 75.36 237.24 74.4C236.2 73.44 235.68 72.32 235.68 71.04C233.6 74.96 230.48 78.64 226.32 82.08C226 82.4 225.6 82.56 225.12 82.56C224.8 82.56 224.64 82.44 224.64 82.2C224.64 81.88 224.88 81.56 225.36 81.24C228.96 77.96 232.04 73.92 234.6 69.12L234.36 67.92C234.28 67.52 234.2 67.16 234.12 66.84C234.12 66.44 234.12 66.08 234.12 65.76C234.12 63.84 234.64 62.32 235.68 61.2C236.64 60.16 237.72 59.64 238.92 59.64C240.44 59.64 241.2 60.44 241.2 62.04C241.2 64.04 239.88 66.6 237.24 69.72V69.96C237.24 71.32 238.04 72 239.64 72C240.28 72 241.04 71.84 241.92 71.52C242.88 71.28 243.56 71.16 243.96 71.16C245.4 71.16 246.12 71.92 246.12 73.44C246.12 74 245.92 74.6 245.52 75.24C244.96 76.04 244.24 77.48 243.36 79.56C242.32 81.8 241.72 83.44 241.56 84.48C241.48 84.8 241.4 85.12 241.32 85.44C241.32 85.76 241.32 86.08 241.32 86.4C241.32 88.48 242.28 89.52 244.2 89.52C246.6 89.52 249.64 88.44 253.32 86.28C254.92 85.4 256.36 84.48 257.64 83.52C258.92 82.56 260.08 81.56 261.12 80.52C261.6 80.04 262 79.8 262.32 79.8C262.56 79.8 262.68 79.96 262.68 80.28C262.68 80.68 262.44 81.12 261.96 81.6C256.36 86.4 251.64 89.48 247.8 90.84C245.8 91.56 244.08 91.92 242.64 91.92Z" fill="black"/>
</svg>
